# xmcd CD database file
#
# Track frame offsets:
#	150
#	15002
#	36700
#	50366
#	66115
#	83869
#	114174
#	131848
#	151699
#	165501
#	191271
#	210847
#	227083
#	246798
#
# Disc length: 3578 seconds
#
# Revision: 0
# Processed by: cddbd v1.5.2PL0 Copyright (c) Steve Scherf et al.
# Submitted via: CDex 1.51
#
DISCID=a30df80e
DTITLE=John Mayall - In The Palace Of The King
DYEAR=2007
DGENRE=Blues
TTITLE0=You Know That You Love Me
TTITLE1=Going Down
TTITLE2=Some Other Day, Some Other Time
TTITLE3=Palace Of The King
TTITLE4=I'd Rather Be Blind
TTITLE5=Time To Go
TTITLE6=Big Legged Woman
TTITLE7=Now I've Got A Woman
TTITLE8=I Love You More Every Day
TTITLE9=Help Me Through The Day
TTITLE10=Cannonball Shuffle
TTITLE11=You've Got Me Licked
TTITLE12=King Of The Kings
TTITLE13=Living On The Highway
EXTD=YEAR: 2007
EXTT0=
EXTT1=
EXTT2=
EXTT3=
EXTT4=
EXTT5=
EXTT6=
EXTT7=
EXTT8=
EXTT9=
EXTT10=
EXTT11=
EXTT12=
EXTT13=
PLAYORDER=
